HIERARCHY
ROOT Hips
{
     OFFSET 19.10990 98.23180 13.60400
     CHANNELS 6 Xposition Yposition Zposition Zrotation Xrotation Yrotation
     JOINT Spine
     {
          OFFSET 0.00000 11.89050 0.00000
          CHANNELS 3 Zrotation Xrotation Yrotation
          JOINT Spine1
          {
               OFFSET -0.00000 25.65740 0.12766
               CHANNELS 3 Zrotation Xrotation Yrotation
               JOINT HEad
               {
                    OFFSET -0.00000 8.73416 0.01134
                    CHANNELS 3 Zrotation Xrotation Yrotation
                    End Site
                    {
                         OFFSET -0.29000 12.77420 2.51395
                    }
               }
               JOINT LeftShoulder1
               {
                    OFFSET 8.99000 -0.36225 -0.22000
                    CHANNELS 3 Zrotation Xrotation Yrotation
                    JOINT LeftArm
                    {
                         OFFSET 10.28270 -0.00338 0.32212
                         CHANNELS 3 Zrotation Xrotation Yrotation
                         JOINT LeftForeArm
                         {
                              OFFSET 32.76690 0.09914 -1.42434
                              CHANNELS 3 Zrotation Xrotation Yrotation
                              JOINT LeftHand
                              {
                                   OFFSET 27.56430 0.08536 1.02216
                                   CHANNELS 3 Zrotation Xrotation Yrotation
                                   End Site
                                   {
                                        OFFSET 16.74430 -0.60000 1.50291
                                   }
                              }
                         }
                    }
               }
               JOINT RightShoulder
               {
                    OFFSET -8.99000 -0.36225 -0.22000
                    CHANNELS 3 Zrotation Xrotation Yrotation
                    JOINT RightArm
                    {
                         OFFSET -10.28270 -0.00338 0.32212
                         CHANNELS 3 Zrotation Xrotation Yrotation
                         JOINT RightForeArm
                         {
                              OFFSET -32.89710 0.09914 -1.42434
                              CHANNELS 3 Zrotation Xrotation Yrotation
                              JOINT RightHand
                              {
                                   OFFSET -27.49210 0.08536 1.02216
                                   CHANNELS 3 Zrotation Xrotation Yrotation
                                   End Site
                                   {
                                        OFFSET -16.63120 -0.60000 1.50291
                                   }
                              }
                         }
                    }
               }
          }
     }
     JOINT LeftUpLeg
     {
          OFFSET 8.94580 -8.66707 0.10165
          CHANNELS 3 Zrotation Xrotation Yrotation
          JOINT LeftLeg
          {
               OFFSET -0.00000 -44.42270 1.37270
               CHANNELS 3 Zrotation Xrotation Yrotation
               JOINT LeftFoot
               {
                    OFFSET -0.25355 -42.09240 -1.46059
                    CHANNELS 3 Zrotation Xrotation Yrotation
                    JOINT LeftToes
                    {
                         OFFSET -0.04000 -4.41509 8.49910
                         CHANNELS 3 Zrotation Xrotation Yrotation
                         End Site
                         {
                              OFFSET 0.08000 -0.04745 9.77979
                         }
                    }
               }
          }
     }
     JOINT RightUpLeg
     {
          OFFSET -8.94580 -8.66707 0.10165
          CHANNELS 3 Zrotation Xrotation Yrotation
          JOINT RightLeg
          {
               OFFSET 0.00000 -44.42270 1.37270
               CHANNELS 3 Zrotation Xrotation Yrotation
               JOINT RightFoot
               {
                    OFFSET 0.25355 -42.09240 -1.46059
                    CHANNELS 3 Zrotation Xrotation Yrotation
                    JOINT RightToes
                    {
                         OFFSET 0.04000 -4.41509 8.49910
                         CHANNELS 3 Zrotation Xrotation Yrotation
                         End Site
                         {
                              OFFSET -0.08000 -0.13745 9.77979
                         }
                    }
               }
          }
     }
}
MOTION
Frames: 17
Frame Time: 0.01667
13.36150 94.01230 74.93040 -0.61745 2.63238 158.45100 -4.54847 6.90867 0.22911 -2.35138 13.33880 -0.57735 1.18845 8.67284 29.68510 -0.00000 -0.00000 0.00000 -75.29630 -33.46680 -59.89720 -19.00320 33.26170 -91.05580 5.55594 9.67997 -0.87718 17.11150 1.25776 3.93077 61.15290 -29.57080 70.46600 22.63000 42.06270 93.07570 -5.55712 9.68432 0.87760 1.56376 -20.69520 11.50400 2.26705 45.77580 -5.45749 -8.78527 -16.43150 -0.60331 1.34576 -21.07030 -17.99310 -11.42780 -20.48130 0.35529 -42.21960 80.14570 45.70400 13.60630 -7.52404 -0.18716 2.60813 5.50628 3.57173 
12.90020 93.92350 76.94120 -0.00969 1.63051 155.33000 -3.65496 6.65191 -0.04445 -1.83338 12.83880 -0.82399 0.02135 7.94487 33.21370 -0.00000 -0.00000 0.00000 -77.86680 -35.90890 -63.86720 -19.81280 33.79280 -89.45450 5.55594 9.67997 -0.87718 16.53140 1.18427 3.70276 63.14550 -29.60580 72.67560 22.70030 42.30130 92.50290 -5.55712 9.68432 0.87760 3.67603 -22.63220 13.56890 2.19280 45.97930 -3.63951 -8.61102 -14.16690 -0.42787 0.90714 -24.27150 -18.90600 -12.23270 -16.41680 0.76993 -32.57930 75.53030 37.13430 13.62930 -6.13538 -0.34503 2.50616 4.89587 2.90765 
12.40140 93.87170 78.94940 0.79810 0.66808 152.28999 -2.36808 6.48230 -0.28186 -1.19506 12.64400 -0.81370 -1.06829 6.90615 36.39730 -0.00000 -0.00000 0.00000 -81.16120 -38.78070 -68.27880 -20.57190 34.24430 -87.77620 5.55594 9.67997 -0.87718 15.88460 1.09827 3.41085 65.10580 -29.25090 74.89230 22.55240 42.36880 91.87230 -5.55712 9.68432 0.87760 5.67767 -24.42200 14.63380 2.66460 45.98360 -1.04296 -9.24121 -9.71117 -0.12458 -0.13775 -30.37090 -20.91680 -12.41570 -12.36540 1.54242 -25.12940 69.34880 31.30310 15.69920 -6.92542 -0.26886 5.26123 6.53580 -0.40282 
11.94600 93.75070 80.97990 1.46433 -0.22284 149.09000 -1.23668 6.44510 -0.31547 -0.67856 12.73190 -0.49596 -1.98663 5.68739 39.16390 -0.00000 -0.00000 0.00000 -85.19730 -41.91030 -73.22190 -21.28970 34.62330 -86.01100 5.55594 9.67997 -0.87718 15.23020 1.00877 3.08162 66.99590 -28.50870 77.07360 22.30060 42.36930 91.19460 -5.55712 9.68432 0.87760 7.38593 -26.09140 14.79070 3.29020 45.92000 2.43665 -9.98179 -4.39367 0.29725 -1.62542 -36.92780 -23.16640 -12.47170 -8.63658 2.61747 -19.83970 62.19260 27.13190 19.52690 -10.01940 0.22306 10.28770 9.26077 -6.00967 
11.60050 93.48040 83.08390 1.78363 -0.96905 145.58299 -0.64886 6.54369 -0.06789 -0.45527 13.00560 0.12220 -2.70245 4.51071 41.45430 -0.00000 -0.00000 0.00000 -89.84200 -45.13750 -78.63030 -21.94800 34.91900 -84.19040 5.55594 9.67997 -0.87718 14.60660 0.92865 2.77649 68.71470 -27.43280 79.07430 22.04310 42.39100 90.47750 -5.55712 9.68432 0.87760 8.85458 -27.69110 14.42600 3.83379 46.06580 6.37573 -10.62180 0.38846 0.73039 -3.08399 -42.07910 -24.89370 -12.70960 -5.44630 3.63750 -16.37600 54.64260 23.55970 23.94470 -14.16320 1.18666 14.92930 10.58580 -11.96000 
11.35820 93.10830 85.24860 1.84681 -1.58066 141.80800 -0.43668 6.69507 0.37147 -0.48116 13.33340 0.96949 -3.26980 3.52584 43.27580 -0.00000 -0.00000 0.00000 -94.87730 -48.33440 -84.30870 -22.47680 35.09630 -82.43540 5.55594 9.67997 -0.87718 13.95000 0.86128 2.53442 70.16550 -26.04480 80.74650 21.78420 42.44620 89.75970 -5.55712 9.68432 0.87760 10.36420 -29.15140 14.08270 4.30264 46.47060 9.96117 -11.36990 3.81510 1.10148 -4.01443 -45.11520 -25.62590 -13.04010 -2.86944 4.03978 -14.28710 47.15700 20.52860 27.21850 -17.91970 2.29882 15.82680 9.14319 -15.23210 
11.17550 92.67610 87.47140 1.77269 -2.04812 137.89500 -0.46034 6.85518 0.90744 -0.66441 13.65690 1.93123 -3.78508 2.72860 44.69850 -0.00000 -0.00000 0.00000 -100.11300 -51.41150 -90.08130 -22.81620 35.13680 -80.92570 5.55594 9.67997 -0.87718 13.18140 0.80132 2.34613 71.23920 -24.33930 82.03890 21.42580 42.45880 89.12420 -5.55712 9.68432 0.87760 12.06620 -30.39100 14.18560 4.87696 47.05720 12.55770 -12.50840 5.85247 1.42547 -4.26721 -46.25720 -25.38730 -13.32770 -1.09207 3.46503 -13.11270 40.50320 18.73780 28.26870 -21.14530 3.22869 12.12470 5.57368 -14.28120 
10.99190 92.20360 89.74510 1.64613 -2.30506 134.03900 -0.68714 7.03738 1.46500 -0.96126 14.01340 2.88765 -4.31709 2.01133 45.81840 -0.00000 -0.00000 0.00000 -105.47400 -54.28140 -95.90500 -23.00550 35.08920 -79.78870 5.55594 9.67997 -0.87718 12.33970 0.74697 2.19407 70.82690 -21.97710 82.82230 20.52080 41.33720 88.88800 -5.55712 9.68432 0.87760 13.86480 -31.31150 14.77370 5.66197 47.65110 14.13530 -14.01980 7.01520 1.74001 -4.06506 -46.17860 -24.59920 -13.56030 -0.29854 1.92618 -12.39700 35.51980 18.63150 27.18470 -24.31060 3.88018 6.69098 1.81545 -10.40280 
10.74670 91.73670 91.97450 1.61326 -2.31217 130.48399 -0.85185 7.25469 1.94565 -1.32743 14.47300 3.73680 -4.88498 1.25220 46.75070 -0.00000 -0.00000 0.00000 -110.96200 -56.83830 -101.79300 -23.16470 35.05290 -79.02980 5.55594 9.67997 -0.87718 11.52930 0.70126 2.07801 69.19980 -19.30230 83.35260 19.22720 39.33610 88.90520 -5.55712 9.68432 0.87760 15.58790 -31.78040 15.53250 6.48479 48.08660 15.14170 -15.58580 7.79228 2.04361 -3.66745 -45.46660 -23.62680 -13.76840 -0.38110 -0.24530 -11.80740 32.53690 19.97470 24.51830 -27.41630 4.16478 2.81992 -0.38401 -6.27412 
10.42910 91.34650 94.09320 1.74495 -2.04424 127.43100 -0.86408 7.54097 2.28062 -1.71279 15.09410 4.40319 -5.47903 0.41053 47.61010 -0.00000 -0.00000 0.00000 -116.49800 -58.98710 -107.61900 -23.39750 35.11530 -78.56950 5.55594 9.67997 -0.87718 10.79820 0.66558 2.00251 67.03820 -16.77080 83.82030 17.84470 37.10540 88.93430 -5.55712 9.68432 0.87760 17.06920 -31.72190 16.07230 6.96275 48.20510 16.06990 -16.95260 8.49009 2.32945 -3.20445 -44.40790 -22.63150 -13.99080 -1.08193 -2.51169 -11.29040 31.40440 22.08470 20.83090 -30.05420 3.98956 0.96445 -1.07580 -3.37701 
10.06780 91.08750 96.04520 2.05367 -1.53941 124.98300 -0.77131 7.90274 2.46596 -2.03895 15.86520 4.83738 -6.08597 -0.40846 48.46970 -0.00000 -0.00000 0.00000 -121.78100 -60.68440 -113.00700 -23.74130 35.31210 -78.30850 5.55594 9.67997 -0.87718 10.12710 0.63773 1.96334 64.51410 -14.51880 84.21250 16.46140 34.72930 88.88390 -5.55712 9.68432 0.87760 18.28150 -31.15500 16.18640 6.80457 47.94470 17.03540 -18.14110 9.19653 2.60735 -2.73610 -43.11000 -21.72510 -14.18300 -2.02653 -4.30223 -10.93190 31.50460 24.15950 16.77450 -31.68320 3.39177 -0.12356 -1.52648 -1.65200 
9.71132 90.97840 97.78960 2.50272 -0.93798 123.19400 -0.55339 8.28514 2.50970 -2.18946 16.67980 5.00053 -6.70457 -0.99139 49.34640 -0.00000 -0.00000 0.00000 -126.30000 -61.94280 -117.41000 -24.16720 35.61770 -78.15950 5.55594 9.67997 -0.87718 9.49244 0.61441 1.94641 61.84310 -12.62810 84.47000 15.15750 32.32380 88.69180 -5.55712 9.68432 0.87760 19.33160 -30.22420 15.91350 6.07486 47.30810 17.57690 -19.34990 9.80836 2.88845 -2.28326 -41.57750 -20.99370 -14.20350 -2.85211 -5.19206 -10.69340 32.05780 25.41500 13.04030 -31.94130 2.58535 -1.61453 -2.85090 -0.48586 
9.41583 90.99490 99.30090 2.99094 -0.38325 122.11100 -0.13877 8.60691 2.39898 -2.08756 17.38310 4.86518 -7.34639 -1.12464 50.19780 -0.00000 -0.00000 0.00000 -129.46500 -62.81090 -120.29900 -24.58920 35.95460 -78.06580 5.55594 9.67997 -0.87718 8.94376 0.59548 1.94038 59.22100 -11.16540 84.50150 14.01910 30.06400 88.34520 -5.55712 9.68432 0.87760 20.28150 -29.16240 15.43080 5.19846 46.33840 16.88720 -20.81290 10.12150 3.17198 -1.83536 -39.74140 -20.46870 -13.97900 -3.35006 -5.12788 -10.43190 32.55610 25.42890 10.14650 -31.11570 1.85719 -3.70264 -5.11096 0.46485 
9.22397 91.09380 100.59300 3.38621 0.08088 121.71300 0.47696 8.78800 2.15256 -1.77103 17.82680 4.44980 -8.01263 -0.68944 50.92290 -0.00000 -0.00000 0.00000 -130.81100 -63.36560 -121.37300 -24.89010 36.22220 -78.01290 5.55594 9.67997 -0.87718 8.60995 0.58504 1.94540 56.77550 -10.19530 84.20280 13.12960 28.15960 87.89040 -5.55712 9.68432 0.87760 21.06760 -28.16040 14.88810 4.63706 45.06300 14.45840 -22.69070 10.05300 3.45879 -1.37982 -37.55880 -20.15290 -13.57360 -3.53245 -4.49366 -10.15950 32.89270 24.48830 8.25071 -30.07560 1.37087 -5.68586 -7.37945 1.16313 
9.14246 91.24550 101.71400 3.58818 0.48951 121.87200 1.20710 8.78610 1.81970 -1.36386 17.92320 3.84848 -8.65841 0.26399 51.40890 -0.00000 -0.00000 0.00000 -130.25900 -63.68960 -120.75000 -24.98730 36.34770 -78.00430 5.55594 9.67997 -0.87718 8.58459 0.58606 1.96107 54.59530 -9.73824 83.51270 12.54340 26.78630 87.42070 -5.55712 9.68432 0.87760 21.58380 -27.29100 14.32400 4.55597 43.46090 10.49910 -24.97400 9.66416 3.74188 -0.89567 -35.01690 -19.94100 -13.09680 -3.54636 -3.82980 -10.06360 33.15150 23.29910 7.18936 -29.59740 1.12237 -6.79794 -8.66730 1.53132 
9.14205 91.43220 102.73300 3.58395 0.89634 122.35600 1.90545 8.62361 1.47327 -1.00214 17.69880 3.21088 -9.20370 1.50492 51.59800 -0.00000 -0.00000 0.00000 -128.27499 -63.84210 -119.01600 -24.89510 36.32810 -78.01810 5.55594 9.67997 -0.87718 8.82304 0.59570 1.97519 52.77230 -9.72669 82.49500 12.26220 26.02230 87.04590 -5.55712 9.68432 0.87760 21.80820 -26.49940 13.71970 4.78684 41.52530 5.79205 -27.55180 8.96472 3.98426 -0.34202 -31.99510 -19.56560 -12.63190 -3.55675 -3.44444 -10.26620 33.44280 22.41610 6.63375 -29.91220 1.02836 -6.79012 -8.64247 1.56765 
9.17957 91.64910 103.68500 3.45649 1.31724 122.89600 2.48202 8.37046 1.18502 -0.74413 17.27900 2.67898 -9.61340 2.73530 51.50030 -0.00000 -0.00000 0.00000 -125.68000 -63.86650 -116.97500 -24.70100 36.21390 -78.01100 5.55594 9.67997 -0.87718 9.16314 0.60647 1.97040 51.38270 -10.01250 81.36490 12.22810 25.81170 86.84870 -5.55712 9.68432 0.87760 21.84630 -25.64190 13.08100 5.00141 39.31890 1.31086 -30.23710 7.84688 4.10463 0.29625 -28.27340 -18.78620 -12.21880 -3.60954 -3.30523 -10.67150 33.73840 21.95070 6.26484 -30.72140 0.99617 -5.95682 -7.65607 1.33973 
